# xmcd CD database file
#
# Track frame offsets:
#	150
#	12002
#	20319
#	33405
#	49267
#	60564
#	77137
#	88065
#
# Disc length: 1508 seconds
#
# Revision: 2
# Processed by: cddbd v1.5.2PL0 Copyright (c) Steve Scherf et al.
# Submitted via: CDex 1.51
#
DISCID=5705e208
DTITLE=Scott H. Biram - Rehabilitation Blues EP
DYEAR=2003
DGENRE=Blues
TTITLE0=Goin' Down Slow
TTITLE1=My Dyin' Day
TTITLE2=Brown's Ferry Blues
TTITLE3=Little Omie Wise
TTITLE4=Boradminded
TTITLE5=Someday Baby
TTITLE6=Sweet Thing
TTITLE7=Midnight Special
EXTD=YEAR: 2003
EXTT0=
EXTT1=
EXTT2=
EXTT3=
EXTT4=
EXTT5=
EXTT6=
EXTT7=
PLAYORDER=
